<svg xmlns="http://www.w3.org/2000/svg" xmlns:xlink="http://www.w3.org/1999/xlink" width="500" zoomAndPan="magnify" viewBox="0 0 375 374.999991" height="500" preserveAspectRatio="xMidYMid meet" version="1.0"><defs><clipPath id="adc36c9a4c"><path d="M 65 36.960938 L 311 36.960938 L 311 337.710938 L 65 337.710938 Z M 65 36.960938 " clip-rule="nonzero"/></clipPath></defs><g clip-path="url(#adc36c9a4c)"><path fill="#000000" d="M 209.460938 110.3125 L 259.660156 58.71875 L 288.796875 88.550781 L 236.140625 138.738281 L 310.210938 138.738281 L 310.210938 180.152344 L 235.789062 180.152344 L 288.796875 231.628906 L 259.660156 260.875 L 187.699219 188.578125 L 115.734375 260.875 L 86.601562 231.746094 L 139.605469 180.269531 L 65.1875 180.269531 L 65.1875 138.738281 L 139.253906 138.738281 L 86.601562 88.550781 L 115.734375 58.71875 L 165.933594 110.3125 L 165.933594 36.960938 L 209.460938 36.960938 Z M 165.933594 239.464844 L 209.460938 239.464844 L 209.460938 337.734375 L 165.933594 337.734375 Z M 165.933594 239.464844 " fill-opacity="1" fill-rule="nonzero"/></g></svg>