<svg xmlns="http://www.w3.org/2000/svg" xmlns:xlink="http://www.w3.org/1999/xlink" width="500" zoomAndPan="magnify" viewBox="0 0 375 374.999991" height="500" preserveAspectRatio="xMidYMid meet" version="1.0"><defs><g/><clipPath id="5a1ae41994"><rect x="0" width="197" y="0" height="281"/></clipPath></defs><rect x="-37.5" width="450" fill="#ffffff" y="-37.499999" height="449.999989" fill-opacity="1"/><rect x="-37.5" width="450" fill="#f6f4f0" y="-37.499999" height="449.999989" fill-opacity="1"/><g transform="matrix(1, 0, 0, 1, 88, 31)"><g clip-path="url(#5a1ae41994)"><g fill="#222222" fill-opacity="1"><g transform="translate(0.700316, 227.882847)"><g><path d="M 70.09375 -136.65625 C 81.09375 -136.65625 90.648438 -134.945312 98.765625 -131.53125 C 106.878906 -128.125 113.15625 -122.984375 117.59375 -116.109375 C 122.03125 -109.242188 124.25 -100.691406 124.25 -90.453125 L 124.25 0 L 90.453125 0 L 90.453125 -13.875 C 82.410156 -7.425781 74.898438 -3.023438 67.921875 -0.671875 C 60.953125 1.671875 54.316406 2.84375 48.015625 2.84375 C 39.597656 2.84375 32.273438 1.363281 26.046875 -1.59375 C 19.828125 -4.550781 15.007812 -8.835938 11.59375 -14.453125 C 8.1875 -20.066406 6.484375 -26.816406 6.484375 -34.703125 C 6.484375 -41.222656 7.660156 -46.929688 10.015625 -51.828125 C 12.367188 -56.722656 15.664062 -60.988281 19.90625 -64.625 C 24.15625 -68.269531 29.160156 -71.421875 34.921875 -74.078125 C 40.691406 -76.734375 46.953125 -79.007812 53.703125 -80.90625 L 90.453125 -91.375 C 90.148438 -96.757812 88.117188 -100.875 84.359375 -103.71875 C 80.609375 -106.5625 75.472656 -107.984375 68.953125 -107.984375 C 63.867188 -107.984375 58.691406 -107.1875 53.421875 -105.59375 C 48.148438 -104 43.085938 -101.835938 38.234375 -99.109375 C 33.378906 -96.378906 29.09375 -93.269531 25.375 -89.78125 L 8.984375 -115.15625 C 18.242188 -122.664062 28.109375 -128.125 38.578125 -131.53125 C 49.046875 -134.945312 59.550781 -136.65625 70.09375 -136.65625 Z M 59.171875 -24.234375 C 64.484375 -24.234375 69.753906 -25.578125 74.984375 -28.265625 C 80.210938 -30.960938 85.367188 -34.515625 90.453125 -38.921875 L 90.453125 -63.953125 L 62.8125 -55.078125 C 56.59375 -53.097656 51.960938 -50.816406 48.921875 -48.234375 C 45.890625 -45.660156 44.375 -42.132812 44.375 -37.65625 C 44.375 -33.488281 45.679688 -30.207031 48.296875 -27.8125 C 50.921875 -25.425781 54.546875 -24.234375 59.171875 -24.234375 Z M 59.171875 -24.234375 "/></g></g></g><g fill="#222222" fill-opacity="1"><g transform="translate(122.852025, 227.882847)"><g><path d="M 23.4375 0 L 23.4375 -41.421875 L 64.515625 -41.421875 L 64.515625 0 Z M 23.4375 0 "/></g></g></g></g></g></svg>